Coordinates
version=1
nRows=14
nColumns=24
inDegrees=yes

Units are S.I. units (second, meters, Newtons, ...)
Angles are in degrees.

endheader
time	pelvis_tilt	pelvis_list	pelvis_rotation	pelvis_tx	pelvis_ty	pelvis_tz	hip_flexion_r	hip_adduction_r	hip_rotation_r	knee_angle_r	ankle_angle_r	subtalar_angle_r	mtp_angle_r	hip_flexion_l	hip_adduction_l	hip_rotation_l	knee_angle_l	ankle_angle_l	subtalar_angle_l	mtp_angle_l	lumbar_extension	lumbar_bending	lumbar_rotation
      5.86000000	    -13.08893231	      5.76193217	      4.43567795	     -0.31442134	     -0.03666389	      2.06742284	     14.81632204	    -10.94834868	    -13.46006826	    -56.72199343	    -19.49343307	      2.16755121	     -7.59742474	     31.74079051	     12.05789772	     -3.80243552	    -23.38453379	     -3.23768694	     -7.97192987	     16.47502512	      9.05173996	     -8.33769510	     -0.85538750
      5.87000000	    -13.08458685	      5.82172514	      4.41882161	     -0.30199665	     -0.03498927	      2.06710722	     16.65307647	    -10.86212930	    -12.47066382	    -58.67325386	    -17.30280981	     -0.14039292	    -11.15276376	     30.72520783	     12.02350093	     -4.15572092	    -23.08626089	     -2.66953028	     -7.56614176	     18.03292363	      8.97205697	     -8.39550944	     -1.08295988
      5.88000000	    -13.04819951	      5.80874651	      4.35701695	     -0.28970415	     -0.03311318	      2.06685217	     18.45417075	    -10.61307027	    -11.42903936	    -60.27948702	    -14.94954417	     -2.08609293	    -14.93569021	     29.60961477	     11.91808748	     -4.36429416	    -22.68383297	     -2.00458297	     -7.10898956	     18.77987969	      8.85702551	     -8.35721583	     -1.27603011
      5.89000000	    -13.08275972	      5.72528328	      4.30886211	     -0.27752986	     -0.03125468	      2.06650931	     20.31216864	    -10.27405347	    -10.44085342	    -61.56109517	    -12.69543876	     -3.66507724	    -18.41665126	     28.51737806	     11.80162351	     -4.34287153	    -22.20399085	     -1.27275754	     -6.74229090	     18.52560347	      8.81582005	     -8.23841638	     -1.47922244
      5.90000000	    -12.88510578	      5.63902755	      4.25621078	     -0.26530611	     -0.02909906	      2.06612286	     21.83708685	     -9.91607631	     -9.52148165	    -62.48066427	    -10.47040146	     -4.68213851	    -21.90586163	     27.06498761	     11.71785944	     -4.13182739	    -21.55945465	     -0.48962276	     -6.46377132	     17.55556044	      8.52894732	     -8.09105441	     -1.71502462
      5.91000000	    -12.77785725	      5.48326587	      4.24869000	     -0.25313599	     -0.02714851	      2.06558547	     23.41096516	     -9.51803709	     -8.72568544	    -63.10317972	     -8.44268070	     -5.32538174	    -24.54795221	     25.68964741	     11.63055524	     -3.71560317	    -20.86719449	      0.21645088	     -6.42858996	     16.27158475	      8.34200859	     -7.87255925	     -1.99326221
      5.92000000	    -12.62419477	      5.32873498	      4.32193096	     -0.24101852	     -0.02530232	      2.06493622	     24.84766864	     -9.18264999	     -8.13124372	    -63.40435715	     -6.80120043	     -5.73277144	    -24.81294911	     24.23753325	     11.59150205	     -3.14531282	    -20.08416266	      0.59222322	     -6.68798305	     15.90502652	      8.09022376	     -7.67089354	     -2.34610222
      5.93000000	    -12.45437806	      4.98773236	      4.44316216	     -0.22889336	     -0.02351937	      2.06419903	     26.16417615	     -8.65301849	     -7.67097441	    -63.35461941	     -4.86951897	     -5.72845992	    -27.39486334	     22.82900043	     11.37651147	     -2.45966275	    -19.48597070	      1.55359636	     -6.59855601	     13.37279625	      7.83752662	     -7.27052897	     -2.75817171
      5.94000000	    -12.36917016	      4.65459670	      4.66413005	     -0.21691986	     -0.02202853	      2.06331548	     27.49617107	     -8.23113758	     -7.41302003	    -63.02023127	     -3.38704108	     -5.60529017	    -27.29111685	     21.52207586	     11.19793441	     -1.74210010	    -18.79174874	      1.86386669	     -6.93309842	     13.21790118	      7.65332058	     -6.90122555	     -3.22249178
      5.95000000	    -12.12707659	      4.22773300	      4.92447623	     -0.20504102	     -0.02040391	      2.06237047	     28.53632993	     -7.73322570	     -7.30510184	    -62.30787651	     -2.04575380	     -5.37770104	    -27.49324970	     20.06852950	     10.91748690	     -0.94769133	    -18.12424629	      2.20838983	     -7.31023162	     12.57336466	      7.28962507	     -6.42142758	     -3.75957058
      5.96000000	    -11.91032859	      3.85390479	      5.16630430	     -0.19319168	     -0.01899744	      2.06147575	     29.55009748	     -7.30759794	     -7.17569342	    -61.38910430	     -0.57766171	     -4.80923115	    -28.72245384	     18.67312972	     10.64399054	     -0.30492756	    -17.54160660	      2.94939833	     -7.25584394	     10.66089380	      6.95670849	     -5.99895813	     -4.17526299
      5.97000000	    -11.86151726	      3.36732526	      5.56490031	     -0.18149441	     -0.01789244	      2.06042319	     30.64062657	     -6.89784295	     -7.33470755	    -60.17267759	      0.44417084	     -4.40485867	    -28.67202160	     17.51776146	     10.27476765	      0.35865823	    -16.97272153	      3.30578008	     -7.31175872	     10.65516011	      6.79338165	     -5.49656439	     -4.73502422
      5.98000000	    -11.69239303	      2.88514552	      5.93288621	     -0.16981966	     -0.01678281	      2.05938990	     31.51618132	     -6.49716072	     -7.54564788	    -58.69202883	      1.29973925	     -4.05411176	    -28.74427594	     16.23141872	      9.86301309	      0.95694699	    -16.37757614	      3.68380099	     -7.33161477	     10.61484963	      6.50636891	     -4.97142951	     -5.24317652
      5.99000000	    -11.48288296	      2.43572204	      6.23686219	     -0.15815397	     -0.01578144	      2.05844687	     32.28777153	     -6.09639047	     -7.67983168	    -57.02705888	      2.55584745	     -3.53679491	    -32.02368029	     14.90972654	      9.43457788	      1.41894799	    -15.79551981	      4.24195809	     -7.20367648	      9.73530750	      6.18497292	     -4.46382031	     -5.69436493
